<?xml version="1.0" encoding="utf-8"?>
<!-- Generator: Adobe Illustrator 15.0.0, SVG Export Plug-In . SVG Version: 6.00 Build 0)  -->
<!DOCTYPE svg PUBLIC "-//W3C//DTD SVG 1.1//EN" "http://www.w3.org/Graphics/SVG/1.1/DTD/svg11.dtd">
<svg version="1.1" id="Layer_1" xmlns="http://www.w3.org/2000/svg" xmlns:xlink="http://www.w3.org/1999/xlink" x="0px" y="0px"
	 width="75px" height="75px" viewBox="0 0 75 75" enable-background="new 0 0 75 75" xml:space="preserve">
<g>
	<path fill="#345362" d="M71.879,0.293l-7.586,7.586l-5.586-5.586c-0.286-0.285-0.716-0.372-1.09-0.217C57.243,2.23,57,2.596,57,3
		v14c0,0.553,0.448,1,1,1h14c0.404,0,0.77-0.243,0.924-0.617c0.155-0.374,0.069-0.804-0.217-1.09l-5.586-5.586l7.586-7.586
		c0.391-0.391,0.391-1.023,0-1.414l-1.414-1.414C72.902-0.098,72.27-0.098,71.879,0.293z"/>
	<path fill="#345362" d="M17,57H3c-0.404,0-0.77,0.243-0.924,0.617c-0.155,0.374-0.069,0.804,0.217,1.09l5.586,5.586l-7.586,7.586
		c-0.391,0.391-0.391,1.023,0,1.414l1.414,1.414c0.391,0.391,1.023,0.391,1.414,0l7.586-7.586l5.586,5.586
		C16.484,72.898,16.74,73,17,73c0.129,0,0.259-0.024,0.383-0.076C17.757,72.77,18,72.404,18,72V58C18,57.447,17.553,57,17,57z"/>
	<path fill="#345362" d="M72.707,58.707c0.286-0.286,0.372-0.716,0.217-1.09C72.77,57.243,72.404,57,72,57H58c-0.552,0-1,0.447-1,1
		v14c0,0.404,0.243,0.77,0.617,0.924C57.741,72.976,57.871,73,58,73c0.26,0,0.516-0.102,0.707-0.293l5.586-5.586l7.586,7.586
		c0.391,0.391,1.023,0.391,1.414,0l1.414-1.414c0.391-0.391,0.391-1.023,0-1.414l-7.586-7.586L72.707,58.707z"/>
	<path fill="#345362" d="M17.383,2.076c-0.374-0.156-0.804-0.069-1.09,0.217l-5.586,5.586L3.121,0.293
		c-0.391-0.391-1.023-0.391-1.414,0L0.293,1.707c-0.391,0.391-0.391,1.023,0,1.414l7.586,7.586l-5.586,5.586
		c-0.286,0.286-0.372,0.716-0.217,1.09C2.23,17.757,2.596,18,3,18h14c0.553,0,1-0.447,1-1V3C18,2.596,17.757,2.23,17.383,2.076z"/>
</g>
<g>
	<path fill="#A67D52" d="M45.712,22.245c-0.121-0.082-0.266-0.125-0.412-0.126l-14.822-0.048c-0.146,0-0.29,0.042-0.412,0.124
		l-9.244,6.516c0,0,0.413,0.742,0.739,0.744l32.608,0.105c0.326,0.001,0.744-0.739,0.744-0.739L45.712,22.245z"/>
	<path fill="#C1A086" d="M20.822,28.71l-0.074,22.975c-0.002,0.818,0.659,1.484,1.478,1.487l31.127,0.1
		c0.818,0.003,1.484-0.659,1.486-1.478l0.074-22.975L20.822,28.71z"/>
	<polygon fill="#D1B43D" points="33.421,28.751 35.665,22.088 40.112,22.103 42.313,28.779 	"/>
	
		<rect x="33.406" y="28.765" transform="matrix(-1 -0.0032 0.0032 -1 75.597 67.2864)" fill="#F0D358" width="8.893" height="9.636"/>
</g>
</svg>
