<?xml version="1.0" encoding="utf-8"?>
<!-- Generator: Adobe Illustrator 15.0.0, SVG Export Plug-In . SVG Version: 6.00 Build 0)  -->
<!DOCTYPE svg PUBLIC "-//W3C//DTD SVG 1.1//EN" "http://www.w3.org/Graphics/SVG/1.1/DTD/svg11.dtd">
<svg version="1.1" id="Layer_1" xmlns="http://www.w3.org/2000/svg" xmlns:xlink="http://www.w3.org/1999/xlink" x="0px" y="0px"
	 width="48px" height="48px" viewBox="0 0 48 48" enable-background="new 0 0 48 48" xml:space="preserve">
<title>multiple 11</title>
<g>
	<circle fill="#45D69E" cx="39" cy="10" r="5"/>
	<circle fill="#45D69E" cx="9" cy="10" r="5"/>
	<path fill="#45D69E" d="M35.996,17C33.237,17,31,19.229,31,22.004v6.791c0,0.555,0.417,1.172,0.933,1.378L34,31l0.916,10.998
		C34.963,42.551,35.453,43,35.997,43h6.006c0.551,0,1.035-0.455,1.081-1.002L44,31l2.051-0.684C46.575,30.142,47,29.553,47,29.002
		v-6.995C47,19.242,44.758,17,42.004,17H35.996z"/>
	<path fill="#45D69E" d="M5.997,17C3.237,17,1,19.229,1,22.004v6.791c0,0.555,0.417,1.172,0.933,1.378L4,31l0.917,10.998
		C4.962,42.551,5.453,43,5.997,43h6.006c0.551,0,1.035-0.455,1.081-1.002L14,31l2.051-0.684C16.575,30.142,17,29.553,17,29.002
		v-6.995C17,19.242,14.758,17,12.003,17H5.997z"/>
	<circle fill="#14A17B" cx="24" cy="7" r="6"/>
	<path fill="#14A17B" d="M20,15c-3.314,0-6,2.678-6,6.003v8.996c0,0.553,0.398,1.2,0.888,1.444L18,33l1.004,13.083
		C19.047,46.602,19.479,47,20,47h8c0.521,0,0.953-0.398,0.996-0.917l0.941-13.287l3.141-1.388C33.588,31.183,34,30.555,34,29.999
		v-8.996C34,17.688,31.323,15,28,15H20z"/>
</g>
</svg>
