<svg version="1.1" xmlns="http://www.w3.org/2000/svg" xmlns:xlink="http://www.w3.org/1999/xlink" x="0px" y="0px" viewBox="0 0 48 48" xml:space="preserve" width="48" height="48"><title>file add</title><g class="nc-icon-wrapper">  <path d="M43,43H5a4,4,0,0,1-4-4V30a1,1,0,0,1,2,0v9a2,2,0,0,0,2,2H43a2,2,0,0,0,2-2V30a1,1,0,0,1,2,0v9A4,4,0,0,1,43,43Z" fill="#335262"/>
  <circle cx="24" cy="16" r="11" fill="#72c472"/>
  <path d="M29,15H25V11a1,1,0,0,0-2,0v4H19a1,1,0,0,0,0,2h4v4a1,1,0,0,0,2,0V17h4a1,1,0,0,0,0-2Z" fill="#fff"/>
</g></svg>