<?xml version="1.0" encoding="utf-8"?>
<!-- Generator: Adobe Illustrator 15.0.0, SVG Export Plug-In . SVG Version: 6.00 Build 0)  -->
<!DOCTYPE svg PUBLIC "-//W3C//DTD SVG 1.1//EN" "http://www.w3.org/Graphics/SVG/1.1/DTD/svg11.dtd">
<svg version="1.1" id="Layer_1" xmlns="http://www.w3.org/2000/svg" xmlns:xlink="http://www.w3.org/1999/xlink" x="0px" y="0px"
	 width="48px" height="48px" viewBox="0 0 48 48" enable-background="new 0 0 48 48" xml:space="preserve">
<title>box 3d 50</title>
<g>
	<path fill="#065991" d="M26,13H2c-0.553,0-1,0.448-1,1v18c0,0.355,0.188,0.686,0.496,0.864l24,14C25.65,46.955,25.826,47,26,47
		c0.172,0,0.344-0.044,0.498-0.133C26.809,46.689,27,46.357,27,46V14C27,13.448,26.553,13,26,13z"/>
	<path fill="#1077CD" d="M46.1,15.005l-20-2c-0.033-0.003-0.065,0.011-0.1,0.011V47c0.201,0,0.402-0.061,0.573-0.182l20-14
		C46.841,32.632,47,32.326,47,32V16C47,15.486,46.609,15.056,46.1,15.005z"/>
	<path fill="#37B7DF" d="M46.504,15.136l-24-14c-0.316-0.185-0.706-0.182-1.019,0.006l-20,12C1.183,13.324,0.998,13.653,1,14.006
		s0.19,0.679,0.496,0.857l24,14C25.652,28.955,25.826,29,26,29c0.178,0,0.355-0.047,0.516-0.143l20-12
		c0.303-0.182,0.486-0.51,0.484-0.864S46.811,15.314,46.504,15.136z"/>
	<polygon fill="#61C6E1" points="12.971,6.251 9.058,8.599 34.986,23.724 34.986,23.774 38.941,21.401 	"/>
	<polygon fill="#58B6CC" points="38.941,21.401 34.986,23.774 34.997,40.923 38.995,38.124 38.984,21.426 	"/>
</g>
</svg>
