<?xml version="1.0" encoding="UTF-8" standalone="no"?>
<!-- Generator: Adobe Illustrator 18.1.1, SVG Export Plug-In . SVG Version: 6.00 Build 0)  -->
<svg id="Layer_1" xmlns:sketch="http://www.bohemiancoding.com/sketch/ns" xmlns="http://www.w3.org/2000/svg" xml:space="preserve" viewBox="-577 385 125 32" height="32" width="125" version="1.1" y="0px" x="0px" xmlns:xlink="http://www.w3.org/1999/xlink" enable-background="new -577 385 125 32">
<path id="Fill-2" d="m-539.5 394.3h2.9l3 10.6h0.1l6-10.6h2.9l-2 14h-1.9l1.6-11.5-6.4 11.5h-1.3l-3.2-11.5-1.6 11.5h-1.9l1.8-14" fill="#2B5882"/>
<path id="Fill-3" d="m-524.5 399h2.1l1.8 7.3 3.7-7.3h1.9l-6.1 11.4c-0.2 0.4-0.4 0.8-0.7 1.1-0.2 0.3-0.5 0.6-0.7 0.9-0.3 0.2-0.6 0.4-1 0.6-0.4 0.1-0.8 0.2-1.3 0.2h-0.8c-0.3 0-0.5-0.1-0.7-0.2l0.4-1.6c0.3 0.1 0.7 0.2 1.1 0.2 0.3 0 0.5 0 0.7-0.1s0.4-0.2 0.5-0.3c0.2-0.1 0.3-0.3 0.4-0.5s0.2-0.4 0.4-0.6l0.8-1.5-2.5-9.6" fill="#2B5882"/>
<path id="Fill-4" d="m-502.1 402.9c0 0.8-0.1 1.6-0.4 2.3s-0.6 1.3-1.1 1.8-1.1 0.9-1.9 1.2c-0.7 0.3-1.6 0.4-2.6 0.4s-1.9-0.1-2.6-0.4-1.4-0.7-1.9-1.2-0.9-1.1-1.1-1.8c-0.3-0.7-0.4-1.5-0.4-2.3v-8.6h3.1v8.5c0 0.4 0.1 0.8 0.2 1.2s0.3 0.7 0.6 1 0.6 0.5 0.9 0.6c0.4 0.2 0.7 0.2 1.2 0.2 0.4 0 0.8-0.1 1.1-0.2l0.9-0.6c0.3-0.3 0.5-0.6 0.6-1s0.2-0.8 0.2-1.2v-8.5h3.1v8.6" fill="#BF333A"/>
<path id="Fill-5" d="m-493 397.8c-0.3-0.3-0.6-0.6-1-0.7-0.4-0.2-0.8-0.2-1.2-0.2-0.2 0-0.5 0-0.7 0.1s-0.5 0.1-0.7 0.2-0.4 0.3-0.5 0.4c-0.1 0.2-0.2 0.4-0.2 0.7 0 0.4 0.2 0.7 0.5 1 0.3 0.2 0.7 0.4 1.2 0.6s1 0.3 1.6 0.5 1.1 0.4 1.6 0.7 0.9 0.7 1.2 1.2 0.5 1.1 0.5 2c0 0.8-0.1 1.5-0.4 2-0.3 0.6-0.7 1.1-1.2 1.4-0.5 0.4-1.1 0.7-1.7 0.9-0.7 0.2-1.4 0.3-2.1 0.3-0.9 0-1.8-0.1-2.6-0.4s-1.5-0.7-2.2-1.3l2.2-2.4c0.3 0.4 0.7 0.8 1.2 1s1 0.3 1.5 0.3c0.3 0 0.5 0 0.8-0.1s0.5-0.1 0.7-0.3c0.2-0.1 0.4-0.3 0.5-0.5s0.2-0.4 0.2-0.7c0-0.4-0.2-0.8-0.5-1s-0.7-0.5-1.2-0.6c-0.5-0.2-1-0.3-1.6-0.5s-1.1-0.4-1.6-0.7-0.9-0.7-1.2-1.1c-0.3-0.5-0.5-1.1-0.5-1.9s0.1-1.4 0.5-2c0.3-0.6 0.7-1 1.2-1.4s1.1-0.7 1.7-0.9c0.7-0.2 1.3-0.3 2-0.3 0.8 0 1.6 0.1 2.3 0.3s1.4 0.6 2 1.1l-2.3 2.3" fill="#BF333A"/>
<path id="Fill-6" d="m-479.8 401.5c-0.3-0.3-0.6-0.6-0.9-0.8s-0.8-0.3-1.3-0.3-0.9 0.1-1.3 0.3-0.7 0.4-1 0.7-0.5 0.7-0.7 1.1c-0.2 0.4-0.3 0.8-0.4 1.3-0.1 0.4-0.1 0.8 0 1.2s0.3 0.7 0.5 1 0.5 0.5 0.9 0.7 0.8 0.2 1.2 0.2c0.5 0 1-0.1 1.3-0.3 0.4-0.2 0.8-0.4 1.1-0.8l1.1 1.3c-0.5 0.5-1.1 0.9-1.8 1.1-0.6 0.2-1.3 0.3-2 0.3s-1.4-0.1-2-0.4c-0.6-0.2-1-0.6-1.4-1s-0.6-0.9-0.8-1.5-0.2-1.3-0.1-2 0.3-1.4 0.6-2 0.7-1.1 1.2-1.6c0.5-0.4 1.1-0.8 1.7-1s1.3-0.4 2.1-0.4c0.7 0 1.3 0.1 1.9 0.4 0.6 0.2 1.1 0.6 1.5 1.1l-1.4 1.4" fill="#2B5882"/>
<path id="Fill-7" d="m-476.5 403.7c-0.1 0.5-0.1 0.9 0 1.3s0.2 0.7 0.5 1c0.2 0.3 0.5 0.5 0.9 0.7s0.8 0.2 1.3 0.2 0.9-0.1 1.3-0.2c0.4-0.2 0.8-0.4 1.1-0.7s0.6-0.6 0.8-1 0.3-0.8 0.4-1.3 0.1-0.9 0-1.3-0.2-0.7-0.5-1c-0.2-0.3-0.5-0.5-0.9-0.7s-0.8-0.2-1.3-0.2-0.9 0.1-1.3 0.2c-0.4 0.2-0.8 0.4-1.1 0.7s-0.6 0.6-0.8 1c-0.2 0.3-0.4 0.8-0.4 1.3m-2 0c0.1-0.7 0.3-1.3 0.7-1.9 0.3-0.6 0.8-1.1 1.3-1.6 0.5-0.4 1.1-0.8 1.8-1.1 0.6-0.3 1.3-0.4 2-0.4s1.4 0.1 1.9 0.4c0.6 0.3 1.1 0.6 1.5 1.1 0.4 0.4 0.7 1 0.9 1.6s0.2 1.2 0.1 1.9-0.3 1.3-0.7 1.9c-0.3 0.6-0.8 1.1-1.3 1.6-0.5 0.4-1.1 0.8-1.8 1-0.6 0.3-1.3 0.4-2 0.4s-1.4-0.1-1.9-0.4c-0.6-0.3-1.1-0.6-1.5-1s-0.7-1-0.9-1.6c-0.1-0.6-0.2-1.3-0.1-1.9" fill="#2B5882"/>
<path id="Fill-8" d="m-466.4 399h1.7l-0.2 1.5c0.1-0.1 0.2-0.3 0.4-0.5s0.4-0.4 0.7-0.6 0.6-0.3 1-0.5c0.4-0.1 0.8-0.2 1.2-0.2 1.4 0 2.3 0.6 2.7 1.7 0.4-0.6 0.9-1 1.5-1.3s1.2-0.4 1.8-0.4c0.7 0 1.3 0.1 1.8 0.4 0.4 0.2 0.8 0.6 1 0.9 0.2 0.4 0.3 0.8 0.4 1.3 0 0.5 0 1-0.1 1.5l-0.7 5.5h-1.8l0.7-5.2c0.1-0.4 0.1-0.7 0.1-1s-0.1-0.6-0.2-0.9c-0.1-0.2-0.3-0.5-0.5-0.6-0.2-0.2-0.6-0.2-1-0.2-0.9 0-1.5 0.3-2 0.8-0.4 0.5-0.7 1.2-0.9 2l-0.7 5.1h-1.8l0.7-4.9c0.1-0.4 0.1-0.9 0.1-1.2 0-0.4 0-0.7-0.1-1s-0.3-0.5-0.5-0.6c-0.2-0.2-0.6-0.2-1-0.2-0.3 0-0.6 0.1-1 0.2-0.3 0.1-0.6 0.3-0.9 0.6s-0.5 0.6-0.7 1-0.3 0.8-0.4 1.4l-0.7 4.9h-1.8l1.2-9.5" fill="#2B5882"/>
<path id="Fill-9" d="m-553.7 404.6c1.1 2.8 2 5.8 2.9 8.7l-7.4 3.4c-1.7-2.6-3.4-5.2-4.8-7.8l9.3-4.3" fill="#BF333A"/>
<path id="Fill-10" d="m-557.8 393.7c2.9-1.1 5.8-2 8.8-2.7l3.6 7.4c-2.6 1.7-5.2 3.3-7.9 4.8l-4.5-9.5" fill="#BF333A"/>
<path id="Fill-11" d="m-564.2 385.5c1.8 2.5 3.3 5 4.8 7.7l-9.4 4.2c-1.1-2.9-2-5.6-2.8-8.5l7.4-3.4" fill="#BF333A"/>
<path id="Fill-12" d="m-569.1 398.9l4.4 9.5c-2.9 1.1-5.8 2.1-8.8 2.9l-3.4-7.5c2.5-1.8 5.1-3.4 7.8-4.9" fill="#BF333A"/>
<path id="Fill-13" d="m-572.6 390.6c0.6 2.5 1.3 4.9 2.2 7.3-2.2 1.2-4.3 2.6-6.4 4.2-0.5-4.3 1-8.6 4.2-11.5" fill="#2B5882"/>
<path id="Fill-14" d="m-550.7 390.2c-2.5 0.6-5 1.3-7.4 2.1-1.2-2.2-2.6-4.3-4.2-6.3 4.3-0.5 8.6 1 11.6 4.2" fill="#2B5882"/>
<path id="Fill-15" d="m-550.1 411.7c-0.6-2.5-1.3-4.9-2.2-7.3 2.2-1.2 4.3-2.6 6.4-4.2 0.6 4.3-1 8.6-4.2 11.5" fill="#2B5882"/>
<path id="Fill-16" d="m-571.9 412.3c2.5-0.6 5-1.4 7.4-2.3 1.3 2.1 2.7 4.2 4.3 6.2-4.3 0.7-8.7-0.8-11.7-3.9" fill="#2B5882"/>
<path id="Fill-17" d="m-487.8 407.2c0 0.7-0.6 1.3-1.3 1.3s-1.3-0.6-1.3-1.3 0.6-1.3 1.3-1.3 1.3 0.5 1.3 1.3" fill="#2B5882"/>
</svg>
