<?xml version="1.0" encoding="utf-8"?>
<!-- Generator: Adobe Illustrator 15.0.0, SVG Export Plug-In . SVG Version: 6.00 Build 0)  -->
<!DOCTYPE svg PUBLIC "-//W3C//DTD SVG 1.1//EN" "http://www.w3.org/Graphics/SVG/1.1/DTD/svg11.dtd">
<svg version="1.1" id="Layer_1" xmlns="http://www.w3.org/2000/svg" xmlns:xlink="http://www.w3.org/1999/xlink" x="0px" y="0px"
	 width="20px" height="26px" viewBox="0 0 20 26" enable-background="new 0 0 20 26" xml:space="preserve">
<title>fishisfast 2017</title>
<path id="Fill-9" fill="#BF333A" d="M14.841,15.219c0.704,1.791,1.28,3.711,1.855,5.565l-4.733,2.176
	c-1.088-1.664-2.175-3.327-3.07-4.99L14.841,15.219"/>
<path id="Fill-10" fill="#BF333A" d="M12.219,8.246c1.855-0.704,3.711-1.28,5.63-1.728l2.303,4.734
	c-1.663,1.087-3.327,2.111-5.054,3.07L12.219,8.246"/>
<path id="Fill-11" fill="#BF333A" d="M8.124,3c1.152,1.599,2.111,3.199,3.071,4.926l-6.014,2.687
	C4.478,8.758,3.902,7.03,3.391,5.175L8.124,3"/>
<path id="Fill-12" fill="#BF333A" d="M4.99,11.573l2.814,6.078c-1.855,0.703-3.71,1.343-5.629,1.854L0,14.707
	C1.6,13.556,3.263,12.532,4.99,11.573"/>
<path id="Fill-13" fill="#2B5882" d="M2.751,6.262c0.384,1.6,0.832,3.135,1.407,4.67c-1.407,0.768-2.751,1.663-4.094,2.687
	C-0.256,10.869,0.704,8.118,2.751,6.262"/>
<path id="Fill-14" fill="#2B5882" d="M16.76,6.007c-1.599,0.384-3.198,0.832-4.733,1.343c-0.768-1.408-1.663-2.751-2.687-4.03
	C12.091,3,14.841,3.959,16.76,6.007"/>
<path id="Fill-15" fill="#2B5882" d="M17.145,19.761c-0.385-1.599-0.832-3.135-1.407-4.67c1.407-0.768,2.751-1.664,4.095-2.687
	C20.215,15.154,19.191,17.905,17.145,19.761"/>
<path id="Fill-16" fill="#2B5882" d="M3.199,20.145c1.599-0.384,3.199-0.896,4.734-1.472c0.831,1.344,1.727,2.688,2.75,3.967
	C7.933,23.088,5.118,22.128,3.199,20.145"/>
</svg>
