<svg id="Layer_1" data-name="Layer 1" xmlns="http://www.w3.org/2000/svg" viewBox="0 0 360 99.89"><defs><style>.cls-1{fill:#00a9ce;}</style></defs><title>logo</title><path class="cls-1" d="M43.49,55.94q-2,11.53-13.2,19.76A50.07,50.07,0,0,1,7.93,85a6.64,6.64,0,0,1-.75.06Q5.88,85,2.8,77T0,67.29q.11-.62,1-.79a69.21,69.21,0,0,0,11.46-3.18q6.43-3,7.45-8.75.65-3.69-2.41-8.23-5.34-7.72-5.76-8.57A20.84,20.84,0,0,1,10.15,24.7Q12,14.31,22.79,7.44A51.14,51.14,0,0,1,43.35.06c.42,0,.75-.06,1-.06q.85,0,1.12,1.36a140.75,140.75,0,0,0,4.23,15,1.21,1.21,0,0,1,.07.57,1.07,1.07,0,0,1-1.19,1,10.75,10.75,0,0,1-1.5-.17,11,11,0,0,0-1.62-.17,15.24,15.24,0,0,0-7.49,1.87,8.36,8.36,0,0,0-4.75,6q-.61,3.46,2.59,8.52Q41.39,43,41.65,43.5A20.39,20.39,0,0,1,43.49,55.94Z"/><path class="cls-1" d="M111.84,40.89l-7,39.18a2.33,2.33,0,0,1-2,2.22q-1.86.23-8.33.23a53.82,53.82,0,0,1-8.61-.45q-1.81-.34-1.44-2.44.86-4.88,2.76-14.71T90,50.2q1.17-6.65-5.59-6.65a12.66,12.66,0,0,0-5.66,1.82q-3.7,2-4.08,4.15l-2.47,14q-.48,2.73-1.33,8.21T69.52,80a2.47,2.47,0,0,1-2.17,2.33q-1.8.23-9.92.23a33.32,33.32,0,0,1-6.62-.45q-2-.45-1.69-2,.79-4.48,2.44-13.49T54,53.1q3.27-18.57,5-30.72.58-4.26,1.22-8.52a57.26,57.26,0,0,0,.47-8.46,5.26,5.26,0,0,1,0-1.08,1.4,1.4,0,0,1,1.05-1.14A24,24,0,0,1,67,2.56q4.57-.17,5.33-.28L82.86,1.08q.91,0,.7,1.19-.32,1.82-1.1,4.94-.87,3.63-1.1,4.94Q78.76,25,77.45,32.43q-.2,1.14.37,1.13.11,0,3.25-2a48.31,48.31,0,0,1,7-3.69,23.86,23.86,0,0,1,9-2q7.27,0,11.48,3.8Q113.09,33.79,111.84,40.89Z"/><path class="cls-1" d="M139.45,56q-.73,4.15-2,12.35t-2,12.3a1.74,1.74,0,0,1-1.67,1.42,67.59,67.59,0,0,1-8.75.34,65.11,65.11,0,0,1-8.69-.34q-1.21-.23-1.4-.74a6.48,6.48,0,0,1,.19-1.7q.69-3.92,2.25-11.78T119.63,56a211.73,211.73,0,0,0,3.28-25.67,11.77,11.77,0,0,1,.1-1.19q.2-1.13,1.73-1.14t4.8.34q3.21.34,4.85.34t5-.28q3.34-.28,5-.28,1.36,0,1.16,1.14c0,.15-.13.51-.3,1.08A248.68,248.68,0,0,0,139.45,56Zm8.92-42.19q-1.74,9.88-12.87,9.88a10.51,10.51,0,0,1-7.45-2.5q-2.93-2.73-2.11-7.38a11,11,0,0,1,4.8-7.27A14,14,0,0,1,139,3.92a9.93,9.93,0,0,1,7.2,2.67A7.57,7.57,0,0,1,148.36,13.8Z"/><path class="cls-1" d="M213.27,54.74A35.16,35.16,0,0,1,202.56,74.9a29.45,29.45,0,0,1-20.83,8.29,21.15,21.15,0,0,1-9-2.16q-4.62-2.16-4.16-2.16-.74,0-1,1.7-.51,2.9-1.25,8.72T165,98a2,2,0,0,1-2.19,1.82l-11.59.06a26.16,26.16,0,0,1-5-.28,1.62,1.62,0,0,1-1.33-2.1l7.82-43.73a106.14,106.14,0,0,0,1.95-22.32,5,5,0,0,1,.06-1,1.38,1.38,0,0,1,.88-1.14,54.05,54.05,0,0,1,8.78-1.82,67.18,67.18,0,0,1,9-1q2.22,0,2,2.92t.25,2.93q-.57,0,5.4-3.1t10.4-3.1q12.32,0,18.27,8.12Q215.48,42.19,213.27,54.74Zm-21-.11a10.77,10.77,0,0,0-1.38-8A7.69,7.69,0,0,0,184,43.1a10.49,10.49,0,0,0-7.9,3.58,15.5,15.5,0,0,0-3.79,8q-.85,4.83,1.09,8,2.06,3.46,6.77,3.46Q190.19,66.1,192.22,54.63Z"/><path class="cls-1" d="M241.44,56q-.73,4.15-2,12.35t-2,12.3a1.74,1.74,0,0,1-1.67,1.42,67.55,67.55,0,0,1-8.75.34,65.12,65.12,0,0,1-8.69-.34q-1.21-.23-1.4-.74a6.46,6.46,0,0,1,.19-1.7q.69-3.92,2.25-11.78T221.62,56a211.53,211.53,0,0,0,3.28-25.67q0-.91.1-1.19.2-1.13,1.73-1.14t4.8.34q3.2.34,4.85.34t5-.28q3.34-.28,5-.28,1.36,0,1.16,1.14c0,.15-.13.51-.3,1.08A249,249,0,0,0,241.44,56Zm8.92-42.19q-1.74,9.88-12.87,9.88a10.51,10.51,0,0,1-7.45-2.5q-2.93-2.73-2.11-7.38a11,11,0,0,1,4.8-7.27A14,14,0,0,1,241,3.92a9.93,9.93,0,0,1,7.2,2.67A7.57,7.57,0,0,1,250.36,13.8Z"/><path class="cls-1" d="M288.73,65.42a50.64,50.64,0,0,1-1.34,5.17,51,51,0,0,0-1.32,5.08,4.56,4.56,0,0,1-.7,2.07A8.76,8.76,0,0,1,283.26,79a37.3,37.3,0,0,1-17,4q-16.41,0-14.2-12.55.66-3.75,2.27-11.27T256.65,48q.44-2.5-2.46-2.5h-.74c-.35,0-.6.06-.75.06q-2.16,0-1.89-1.53.16-.91.63-2.78t.63-2.78q.21-1.19.5-3.63t.5-3.63q.2-1.14,3.86-1.25,2.06-.06,2.42-1.14A45,45,0,0,0,260.78,22q1.06-7.32,1-7Q263,8.4,264.2,8.41a18.74,18.74,0,0,1,4.25.68,37,37,0,0,0,4.34.85q2.83.4,8.56,1.08,1.4.11,1.25,1-.4,2.27-1.58,6.87t-1.59,6.93q-.49,2.78,1.16,2.78,2,0,6-.17t6.11-.17q1.25,0,1.1.85-.23,1.31-1,3.92t-1,3.92q-.24,1.36-.65,4t-.64,4q-.21,1.19-1.86,1.19-1.14,0-3.79-.08t-3.79-.09H276.9q-.85,0-1.29,2.5l-.71,4q-.42,2.73-.65,4-.84,4.77-.08,6.59,1.1,2.44,5.59,2.44a19.85,19.85,0,0,0,4.18-.65,19.87,19.87,0,0,1,3.84-.65Q288.95,64.17,288.73,65.42Z"/><path class="cls-1" d="M351.32,54.12a34.81,34.81,0,0,1-11.63,21,32.91,32.91,0,0,1-22.23,8.06q-12.5,0-19.16-7.95T293.84,54.8q2.32-13.17,11.49-21.38t22.35-8.21q12.83,0,19.37,8T351.32,54.12Zm-18.63,0a10.79,10.79,0,0,0-1.39-7.92,7.29,7.29,0,0,0-6.61-3.44,11,11,0,0,0-8,3.52,14.35,14.35,0,0,0-4.11,7.84A10.6,10.6,0,0,0,313.92,62a7.53,7.53,0,0,0,6.76,3.52A11,11,0,0,0,328.63,62,14.59,14.59,0,0,0,332.69,54.12Z"/><path class="cls-1" d="M355.62,14.76s0,0-.1.05a8.73,8.73,0,0,1-1,0,8.56,8.56,0,0,1-.91,0l-.13,0a.23.23,0,0,1-.07-.1l-.23-.59q-.2-.51-.62-1.51a.45.45,0,0,0-.43-.22h-.53c-.05,0-.08.09-.08.26s0,.58.06,1,.06.81.06,1c0,.06,0,.09,0,.1h-.14l-.94,0a6.71,6.71,0,0,1-.88,0c-.1,0-.15-.07-.15-.16q0-.56.05-1.7t.05-1.71q0-2.17-.1-3.38V7.79c0-.06.05-.1.16-.12s.63,0,1.56-.06l1.51,0a3.19,3.19,0,0,1,1.9.53,2,2,0,0,1,.84,1.72,2.76,2.76,0,0,1-.22,1.19,2.43,2.43,0,0,1-.79.87c-.08.05-.12.11-.12.15l.62,1.29A9.5,9.5,0,0,1,355.62,14.76Zm-2.15-4.59a.92.92,0,0,0-.41-.87,2,2,0,0,0-1-.18q-.49,0-.52.15a8.72,8.72,0,0,0,0,1q0,.12,0,.35c0,.15,0,.27,0,.34s.05,0,.16.05a4.47,4.47,0,0,0,.66,0Q353.47,11.06,353.47,10.16Z"/><path class="cls-1" d="M352.69,18.54A7.31,7.31,0,1,1,360,11.23,7.32,7.32,0,0,1,352.69,18.54Zm0-13.16a5.85,5.85,0,1,0,5.84,5.85A5.85,5.85,0,0,0,352.69,5.38Z"/></svg>