<?xml version="1.0" encoding="utf-8"?>
<!-- Generator: Adobe Illustrator 15.0.0, SVG Export Plug-In . SVG Version: 6.00 Build 0)  -->
<!DOCTYPE svg PUBLIC "-//W3C//DTD SVG 1.1//EN" "http://www.w3.org/Graphics/SVG/1.1/DTD/svg11.dtd">
<svg version="1.1" id="Layer_1" xmlns="http://www.w3.org/2000/svg" xmlns:xlink="http://www.w3.org/1999/xlink" x="0px" y="0px"
	 width="48px" height="48px" viewBox="0 0 48 48" enable-background="new 0 0 48 48" xml:space="preserve">
<title>mastercard</title>
<g>
	<path fill="#0AE5AC" d="M4,7h40c1.656,0,3,1.343,3,3v28c0,1.656-1.344,3-3,3H4c-1.657,0-3-1.344-3-3V10C1,8.343,2.343,7,4,7z"/>
	<circle fill="#E61C24" cx="19" cy="24" r="8"/>
	<circle fill="#F99F1B" cx="28.934" cy="24" r="8"/>
	<path fill="#F26622" d="M23.967,17.736L23.967,17.736c-3.459,2.735-4.047,7.756-1.312,11.216c0.385,0.487,0.825,0.927,1.312,1.312
		l0,0c3.46-2.734,4.047-7.756,1.312-11.216C24.895,18.561,24.454,18.121,23.967,17.736z"/>
</g>
</svg>
